<svg width="512" height="512" viewBox="0 0 512 512" fill="none" xmlns="http://www.w3.org/2000/svg">
<rect width="512" height="512" rx="256" fill="#FBDC5F"/>
<path d="M392 330.666C392 411.444 329.419 461 244.797 461C209.222 461 167.539 455.772 120.689 440.771C120.155 440.6 119.868 440.019 120.06 439.492L161.414 326.014C161.556 325.624 161.927 325.364 162.343 325.364H163.193C163.633 325.364 164.022 325.663 164.146 326.085C186.285 401.812 223.568 438.909 269.933 438.909C308.042 438.909 330.967 415.273 330.967 380.222C330.967 337.514 285.929 319.989 240.227 298.708C192.904 275.882 144.107 246.869 144.107 176.769C144.107 106.668 202.855 51 286.002 51C313.172 51 342.502 54.7392 370.434 61.4359C370.98 61.5668 371.306 62.1264 371.152 62.6661L342.671 162.282C342.549 162.706 342.161 162.999 341.72 162.999H340.963C340.504 162.999 340.105 162.679 339.998 162.233C326.901 107.815 294.235 73.0905 257.771 73.0905C224.969 73.0905 203.593 99.7464 203.593 130.231C203.593 173.676 253.201 189.655 301.261 213.292C346.299 235.382 392 263.584 392 330.666Z" fill="#370808"/>
<path d="M392 330.666C392 411.444 329.419 461 244.797 461C209.222 461 167.539 455.772 120.689 440.771C120.155 440.6 119.868 440.019 120.06 439.492L161.414 326.014C161.556 325.624 161.927 325.364 162.343 325.364H163.193C163.633 325.364 164.022 325.663 164.146 326.085C186.285 401.812 223.568 438.909 269.933 438.909C308.042 438.909 330.967 415.273 330.967 380.222C330.967 337.514 285.929 319.989 240.227 298.708C192.904 275.882 144.107 246.869 144.107 176.769C144.107 106.668 202.855 51 286.002 51C313.172 51 342.502 54.7392 370.434 61.4359C370.98 61.5668 371.306 62.1264 371.152 62.6661L342.671 162.282C342.549 162.706 342.161 162.999 341.72 162.999H340.963C340.504 162.999 340.105 162.679 339.998 162.233C326.901 107.815 294.235 73.0905 257.771 73.0905C224.969 73.0905 203.593 99.7464 203.593 130.231C203.593 173.676 253.201 189.655 301.261 213.292C346.299 235.382 392 263.584 392 330.666Z" fill="#370808"/>
</svg>
